<?xml version="1.0" standalone="no"?>
<!DOCTYPE svg PUBLIC "-//W3C//DTD SVG 20010904//EN"
 "http://www.w3.org/TR/2001/REC-SVG-20010904/DTD/svg10.dtd">
<svg version="1.0" xmlns="http://www.w3.org/2000/svg"
 width="800.000000pt" height="823.000000pt" viewBox="0 0 800.000000 823.000000"
 preserveAspectRatio="xMidYMid meet">

<g transform="translate(0.000000,823.000000) scale(0.100000,-0.100000)"
fill="#0000" stroke="none">
<path d="M3135 8224 c-200 -41 -318 -101 -428 -218 -21 -23 -43 -40 -48 -38
-6 1 -8 -2 -4 -8 11 -18 -72 -115 -169 -195 -79 -66 -101 -91 -126 -141 -38
-78 -38 -91 1 -62 17 13 38 28 45 33 37 25 113 103 128 130 9 17 15 23 12 15
-2 -8 -32 -98 -65 -200 -34 -102 -176 -563 -315 -1025 -242 -798 -622 -2052
-884 -2915 -66 -217 -321 -1056 -567 -1865 -245 -808 -464 -1528 -486 -1598
-21 -71 -39 -130 -39 -133 0 -2 13 -4 28 -4 l28 0 309 1017 c169 560 334 1104
366 1208 31 105 140 465 242 800 102 336 330 1085 505 1665 176 580 427 1406
557 1835 131 429 242 795 247 813 10 35 48 47 48 14 0 -10 -36 -134 -79 -277
-44 -143 -303 -998 -576 -1900 -403 -1332 -1065 -3516 -1396 -4610 -100 -329
-160 -529 -166 -547 -4 -17 40 -18 829 -18 l833 0 15 48 c24 74 80 68 80 -9 0
-39 0 -39 40 -39 27 0 42 6 49 18 10 16 10 16 11 0 0 -17 102 -18 1995 -18
1589 0 1995 3 1995 13 0 6 3 23 6 37 5 24 4 23 -24 -8 -33 -38 -36 -36 -48 28
l-7 45 -10 -38 c-5 -20 -13 -37 -19 -37 -5 0 -7 8 -4 18 2 9 10 36 17 60 7 23
16 42 20 42 4 0 11 -28 15 -62 l7 -62 37 43 c38 43 58 43 42 -1 -5 -12 -12
-35 -16 -50 l-6 -28 227 0 228 0 144 553 c79 303 187 721 241 927 54 206 182
699 285 1095 454 1742 562 2156 569 2162 3 4 12 1 18 -5 10 -10 8 -28 -6 -85
-21 -82 -124 -477 -425 -1637 -117 -448 -268 -1029 -336 -1290 -68 -261 -196
-753 -285 -1094 -88 -340 -159 -621 -156 -623 3 -3 9 12 15 33 18 71 218 842
359 1384 77 294 302 1163 501 1930 199 767 373 1436 386 1485 32 118 65 286
64 322 -1 15 -7 -8 -14 -52 -24 -139 -68 -305 -81 -305 -25 0 -24 20 10 157
45 185 61 332 47 454 -43 384 -267 668 -698 887 -90 45 -112 61 -107 74 4 12
-5 24 -28 38 -33 20 -33 20 -36 0 -2 -11 -5 -20 -7 -20 -2 0 -696 345 -1542
766 -846 422 -1606 799 -1689 839 -276 133 -416 175 -590 175 -163 0 -293 -47
-404 -147 -117 -106 -186 -230 -265 -473 -20 -63 -38 -116 -39 -118 -8 -7 -36
12 -36 24 0 30 91 287 126 357 75 148 147 232 262 305 109 70 265 107 405 97
45 -3 54 -2 32 4 -31 9 -164 12 -200 5z m310 -509 c29 -28 32 -61 9 -93 -18
-26 -56 -29 -78 -6 -26 26 -18 39 9 14 20 -19 27 -21 40 -10 21 17 19 25 -7
27 -43 4 -64 62 -30 82 25 15 30 14 57 -14z m80 -65 c3 -5 -1 -10 -9 -10 -9 0
-16 5 -16 10 0 6 4 10 9 10 6 0 13 -4 16 -10z m115 -34 c0 -6 -4 -25 -9 -43
-6 -21 -5 -35 2 -42 8 -8 6 -11 -6 -11 -9 0 -17 -5 -17 -11 0 -5 -5 -7 -10 -4
-6 4 -8 10 -5 15 3 5 -8 16 -25 25 -39 20 -38 34 7 66 37 26 63 28 63 5z
m-139 -29 c-1 -12 -15 -9 -19 4 -3 6 1 10 8 8 6 -3 11 -8 11 -12z m235 -26
c-3 -9 -10 -35 -17 -58 -14 -50 -35 -59 -24 -10 4 17 10 43 13 56 4 20 2 23
-12 18 -9 -4 -16 -2 -16 3 0 10 30 18 48 12 7 -2 10 -12 8 -21z m-652 -367 c9
-65 8 -86 -4 -79 -5 3 -10 15 -10 25 0 22 -36 36 -54 21 -27 -23 -24 4 5 40
41 51 55 50 63 -7z m148 -20 c10 -77 9 -136 -2 -129 -5 3 -10 17 -10 31 0 34
-56 59 -83 36 -9 -8 -20 -12 -23 -9 -9 9 89 128 101 124 6 -2 13 -26 17 -53z
m-17 -839 c156 -33 324 -155 408 -297 144 -243 112 -538 -75 -674 -78 -58
-139 -77 -248 -77 -159 -2 -284 54 -411 183 -122 122 -189 280 -189 441 0 177
90 329 235 395 96 44 171 52 280 29z m3615 -365 c0 -21 -13 -38 -26 -33 -14 5
-19 34 -8 46 8 7 34 -3 34 -13z m62 -20 c-6 -37 -15 -50 -31 -41 -20 13 -5 73
17 69 12 -2 16 -11 14 -28z m68 13 c0 -10 -5 -35 -10 -55 -8 -26 -15 -35 -25
-31 -18 6 -18 16 -4 66 10 38 39 52 39 20z m70 0 c0 -16 -14 -76 -25 -110 -5
-15 -35 -6 -35 11 0 34 32 116 45 116 8 0 15 -8 15 -17z m180 -73 c33 -17 80
-66 80 -84 0 -15 -21 -3 -58 34 -35 35 -45 40 -86 40 -34 0 -46 4 -46 15 0 22
62 19 110 -5z m-2 -56 c25 -16 38 -41 28 -51 -3 -4 -15 3 -26 15 -11 12 -33
25 -48 28 -37 9 -43 14 -36 26 7 12 50 2 82 -18z m-18 -49 c10 -12 9 -16 -5
-21 -16 -6 -34 9 -35 29 0 13 27 8 40 -8z m-2988 -24 c-5 -3 -16 -25 -22 -49
-7 -23 -15 -40 -18 -38 -2 3 3 25 11 50 8 24 12 47 9 51 -4 3 2 3 12 -1 10 -4
13 -10 8 -13z m3304 -43 l106 -53 -7 -40 c-3 -21 -8 -41 -11 -44 -2 -3 -53 19
-112 48 -102 49 -107 54 -106 82 2 32 10 59 19 59 2 0 52 -24 111 -52z m-3243
-25 c-15 -3 -26 -15 -32 -36 -5 -18 -10 -24 -10 -14 -2 31 18 57 42 56 l22 -2
-22 -4z m109 -31 c3 -10 -1 -23 -9 -30 -11 -11 -12 -9 -9 10 3 13 5 26 5 31 2
13 9 7 13 -11z m-66 -36 c-3 -13 -13 -27 -23 -30 -16 -6 -16 -6 0 12 9 10 17
29 18 43 0 13 3 18 6 11 3 -7 2 -23 -1 -36z m-51 -24 c-3 -3 -11 0 -18 7 -9
10 -8 11 6 5 10 -3 15 -9 12 -12z m209 -1 c15 -17 16 -24 5 -60 -7 -23 -14
-39 -17 -37 -2 3 1 21 8 41 13 41 4 61 -33 68 -21 4 -21 4 -1 6 11 0 29 -8 38
-18z m-112 -20 c2 -17 1 -28 -4 -25 -8 5 -12 54 -4 54 2 0 6 -13 8 -29z m175
7 c-3 -8 -6 -5 -6 6 -1 11 2 17 5 13 3 -3 4 -12 1 -19z m-117 -18 c-13 -8 -13
-13 -1 -32 12 -22 12 -22 -4 -6 -19 18 -14 48 7 48 9 0 8 -3 -2 -10z m107 -22
c-3 -8 -6 -5 -6 6 -1 11 2 17 5 13 3 -3 4 -12 1 -19z m171 -27 c2 -7 -5 -4
-17 8 -32 32 -47 26 -61 -26 -7 -27 -17 -52 -22 -58 -6 -6 -7 -5 -4 5 2 8 12
39 21 68 l17 53 31 -18 c17 -10 32 -24 35 -32z m-9 -45 c-9 -6 -19 -20 -21
-31 -3 -16 -5 -15 -10 8 -4 22 -2 27 13 27 11 0 19 5 19 12 0 6 3 8 7 4 5 -4
1 -13 -8 -20z m93 -23 c21 -19 24 -53 4 -53 -8 0 -18 4 -21 10 -3 6 1 7 9 4
19 -7 22 16 4 34 -20 20 -38 13 -54 -20 l-15 -33 6 30 c10 46 35 57 67 28z
m-610 -13 c-2 -7 6 -19 16 -26 21 -14 48 -71 39 -80 -11 -11 -44 7 -55 29
l-10 22 -10 -25 c-8 -21 -5 -30 19 -58 52 -59 30 -128 -38 -120 -18 2 -33 0
-33 -4 0 -4 -7 -8 -15 -8 -8 0 -15 7 -15 16 0 9 -11 27 -25 40 -24 22 -43 70
-32 80 10 10 47 -7 47 -20 0 -8 7 -19 15 -26 12 -10 15 -7 21 15 5 20 1 32
-20 54 -51 54 -19 132 48 115 17 -4 26 -2 26 6 0 6 6 10 13 7 6 -2 11 -10 9
-17z m665 -72 c-2 -13 -4 -3 -4 22 0 25 2 35 4 23 2 -13 2 -33 0 -45z m43 -8
c-18 -23 -34 -39 -37 -37 -4 4 57 77 65 77 2 0 -11 -18 -28 -40z m-103 4 c-3
-3 -12 -4 -19 -1 -8 3 -5 6 6 6 11 1 17 -2 13 -5z m173 2 c0 -2 -7 -7 -16 -10
-8 -3 -12 -2 -9 4 6 10 25 14 25 6z m-585 -36 c67 -41 67 -134 0 -120 -5 1 -2
-7 6 -17 41 -47 24 -103 -32 -103 -57 0 -129 57 -129 101 0 29 18 23 53 -16
38 -43 77 -48 77 -10 0 17 -8 29 -25 37 -14 6 -25 19 -25 29 0 15 6 17 34 12
38 -6 52 7 37 36 -14 24 -40 34 -57 20 -13 -11 -54 3 -54 19 0 35 67 42 115
12z m635 -5 c0 -8 -3 -16 -7 -18 -5 -3 -8 5 -8 18 0 13 3 21 8 18 4 -2 7 -10
7 -18z m-77 -5 c-3 -11 -7 -20 -9 -20 -2 0 -4 9 -4 20 0 11 4 20 9 20 5 0 7
-9 4 -20z m114 -12 c-3 -8 -6 -5 -6 6 -1 11 2 17 5 13 3 -3 4 -12 1 -19z m61
-39 c-3 -20 -5 -19 -9 9 -3 20 -2 29 4 23 5 -5 7 -19 5 -32z m-78 -16 c-11
-17 -11 -17 -6 0 3 10 6 24 7 30 0 9 2 9 5 0 3 -7 0 -20 -6 -30z m121 -4 c-5
-13 -10 -19 -10 -12 -1 15 10 45 15 40 3 -2 0 -15 -5 -28z m-594 -6 c20 -9 41
-30 51 -49 23 -49 6 -79 -66 -111 l-57 -26 48 -20 c43 -19 59 -42 41 -60 -4
-3 -42 12 -85 34 -102 51 -104 66 -9 98 84 29 97 42 82 76 -8 17 -20 25 -37
25 -14 0 -25 -4 -25 -10 0 -14 -13 -12 -35 4 -19 14 -19 15 -1 35 23 25 47 26
93 4z m660 -15 c-3 -8 -6 -5 -6 6 -1 11 2 17 5 13 3 -3 4 -12 1 -19z m-120
-10 c-3 -8 -6 -5 -6 6 -1 11 2 17 5 13 3 -3 4 -12 1 -19z m64 -38 c7 0 9 -3 6
-6 -10 -10 -37 16 -36 35 0 11 3 9 9 -6 5 -13 15 -23 21 -23z m112 30 c-13 -5
-23 -15 -23 -21 0 -7 -3 -9 -6 -6 -10 10 16 37 35 36 11 0 9 -3 -6 -9z m2167
-31 c12 -28 12 -33 -5 -45 -22 -16 -59 -19 -50 -4 3 6 13 10 21 10 19 0 18 16
-2 24 -58 22 -110 -15 -101 -72 14 -80 102 -121 145 -67 11 14 23 25 26 25 14
0 4 -22 -19 -45 -61 -62 -165 4 -165 103 0 63 58 100 111 71 18 -9 19 -8 13
17 -9 36 9 24 26 -17z m-2240 -6 c-11 -17 -11 -17 -6 0 3 10 6 24 7 30 0 9 2
9 5 0 3 -7 0 -20 -6 -30z m118 12 c-3 -3 -9 2 -12 12 -6 14 -5 15 5 6 7 -7 10
-15 7 -18z m-28 -68 c13 -5 13 -6 -1 -6 -9 -1 -24 9 -35 22 -19 22 -19 22 1 6
11 -9 27 -19 35 -22z m-444 -18 c28 -26 47 -76 33 -85 -5 -3 -25 11 -43 31
-37 40 -60 43 -82 10 -13 -20 -12 -21 21 -21 48 0 89 -40 89 -88 0 -79 -79
-103 -139 -43 -42 42 -51 75 -35 133 17 59 62 98 104 90 16 -4 40 -16 52 -27z
m164 -74 c59 -30 79 -97 40 -133 -11 -10 -38 -25 -60 -32 -22 -7 -40 -16 -40
-20 0 -3 20 -16 45 -28 31 -15 43 -26 39 -37 -4 -8 -10 -15 -14 -15 -10 0
-160 70 -160 74 0 22 22 38 75 56 35 12 69 27 75 35 27 32 -13 80 -48 59 -14
-9 -24 -9 -41 1 l-24 12 22 22 c25 25 51 27 91 6z m-630 -190 c168 -81 318
-159 333 -173 49 -46 70 -98 65 -164 -3 -47 -10 -64 -33 -88 -42 -44 -84 -55
-142 -37 -27 8 -174 75 -328 149 -314 151 -360 183 -384 271 -31 108 38 203
139 194 32 -3 136 -48 350 -152z m265 135 c7 -11 -19 -65 -36 -75 -22 -14 -30
11 -14 48 15 36 37 48 50 27z m540 -32 c14 -6 25 -14 25 -17 0 -3 -13 -53 -30
-111 -16 -58 -30 -106 -30 -107 0 -6 -26 -2 -38 6 -11 7 -9 25 12 100 l25 91
-30 0 c-55 0 -27 40 33 49 4 1 19 -4 33 -11z m-2461 -26 c9 -15 -27 -122 -42
-122 -10 0 -12 7 -8 25 3 14 9 36 12 50 5 19 2 25 -10 25 -16 0 -21 12 -9 23
9 10 51 9 57 -1z m77 -37 c51 -27 58 -88 15 -124 -12 -10 -23 -10 -50 -1 -20
6 -38 15 -41 19 -7 12 26 121 37 121 5 0 22 -7 39 -15z m2584 -32 c91 -46 95
-60 28 -124 -109 -102 -109 -102 -133 -89 -22 12 -20 14 50 85 l73 74 -56 25
c-32 14 -57 27 -57 30 0 8 12 36 16 36 2 0 37 -17 79 -37z m185 -88 c88 -46
77 -133 -22 -165 -21 -6 -38 -15 -38 -19 0 -4 18 -16 40 -26 26 -12 40 -25 40
-37 0 -10 -4 -18 -9 -18 -12 0 -161 68 -161 74 0 22 21 38 75 56 35 12 69 27
75 35 27 32 -13 80 -48 59 -14 -9 -24 -9 -40 0 -20 11 -21 13 -6 34 18 26 53
28 94 7z m-340 -50 c15 -18 6 -45 -13 -45 -20 0 -40 27 -33 45 7 19 30 19 46
0z m-1768 -150 c8 -8 -24 -115 -34 -115 -11 0 -11 0 7 50 18 52 18 50 -1 50
-8 0 -12 5 -9 10 7 11 28 13 37 5z m75 -92 c12 20 27 37 32 37 6 0 11 -24 13
-52 l3 -53 23 39 c13 21 25 36 29 33 6 -7 -48 -97 -59 -97 -5 0 -8 23 -8 50 0
28 -4 50 -10 50 -5 0 -10 -3 -10 -7 0 -5 -11 -21 -25 -38 l-24 -30 1 70 1 70
6 -55 6 -55 22 38z m1452 -35 c0 -7 -5 -22 -10 -33 -8 -16 -8 -15 -4 8 l6 29
-30 -21 c-42 -30 -45 -38 -20 -52 16 -8 23 -8 29 1 5 8 9 6 12 -7 3 -10 -1
-24 -9 -31 -10 -10 -13 -10 -13 2 0 9 -14 23 -31 31 -17 9 -29 19 -26 21 14
15 83 63 90 64 4 0 7 -6 6 -12z m103 -45 c32 -29 17 -65 -25 -62 -7 0 -2 4 11
9 12 5 22 16 22 23 0 21 -27 40 -45 33 -9 -3 -13 -2 -10 4 9 15 26 12 47 -7z
m133 -96 c-4 -8 -14 -18 -23 -22 -13 -5 -13 -3 2 14 10 11 15 25 11 33 -6 10
-5 10 4 2 6 -6 9 -18 6 -27z m-190 -7 l20 -25 -22 19 c-13 11 -23 24 -23 29 0
6 1 8 3 6 1 -2 11 -15 22 -29z m62 -5 c-4 -8 -12 -15 -19 -14 -10 0 -10 2 0 6
6 2 12 12 12 21 0 8 3 13 6 9 4 -3 4 -13 1 -22z m289 -30 c18 -14 17 -15 -8
-4 -33 14 -56 6 -68 -23 -6 -16 -9 -18 -9 -6 -1 21 25 48 48 48 9 0 26 -7 37
-15z m-206 -35 c10 0 21 5 23 10 3 6 4 5 3 -2 -6 -31 -76 -7 -76 26 0 6 7 0
16 -12 8 -12 24 -22 34 -22z m-950 -35 c0 -27 -24 -105 -32 -105 -8 0 -2 36
13 78 12 32 11 35 -6 28 -8 -3 -15 -1 -15 4 0 6 9 10 20 10 11 0 20 -7 20 -15z
m1113 -54 c-4 -6 -43 30 -43 40 0 5 10 -2 23 -14 13 -12 22 -24 20 -26z m57
20 c-6 -12 -15 -21 -21 -21 -6 0 -3 7 5 16 9 8 16 20 16 26 0 6 3 9 6 6 3 -4
1 -16 -6 -27z m-1106 -3 c3 -13 6 -38 6 -55 0 -18 2 -33 5 -33 3 0 20 16 37
36 17 19 35 31 39 27 5 -5 1 -33 -8 -63 -9 -30 -18 -49 -20 -42 -3 7 0 26 6
42 13 39 -2 38 -29 0 -27 -39 -40 -30 -40 26 0 53 -15 58 -24 9 -4 -19 -11
-35 -16 -35 -5 0 -3 21 5 48 8 26 15 50 15 55 0 17 18 5 24 -15z m1152 -13
c-18 -50 -26 -54 -14 -6 6 23 14 41 18 41 4 0 2 -16 -4 -35z m134 -45 c-10
-36 -19 -58 -19 -49 -1 19 29 122 34 117 2 -2 -5 -32 -15 -68z m-50 56 c0 -2
-8 -10 -17 -17 -16 -13 -17 -12 -4 4 13 16 21 21 21 13z m-7 -91 c12 -8 16
-15 10 -15 -19 0 -43 30 -42 53 2 22 2 22 6 0 2 -13 14 -30 26 -38z m120 28
c-12 -2 -24 -14 -28 -30 -3 -14 -8 -23 -11 -21 -2 3 0 17 5 32 8 18 17 26 33
25 22 -2 22 -2 1 -6z m47 -43 c0 -11 -4 -20 -9 -20 -5 0 -7 9 -4 20 3 11 7 20
9 20 2 0 4 -9 4 -20z m43 -15 c-3 -9 -8 -14 -10 -11 -3 3 -2 9 2 15 9 16 15
13 8 -4z m-75 -36 c10 0 12 -3 5 -5 -15 -7 -53 13 -53 27 0 6 7 3 16 -5 8 -9
23 -16 32 -17z m183 4 c12 -16 12 -17 -1 -7 -8 7 -24 14 -35 17 -19 4 -19 5 1
6 12 0 28 -7 35 -16z m-129 -25 c-8 -8 -9 -4 -5 13 4 13 8 18 11 10 2 -7 -1
-18 -6 -23z m99 -5 c13 -16 12 -17 -3 -4 -10 7 -18 15 -18 17 0 8 8 3 21 -13z
m-20 -40 c13 -16 12 -17 -3 -4 -10 7 -18 15 -18 17 0 8 8 3 21 -13z m46 -8
c-4 -8 -12 -15 -19 -14 -10 0 -10 2 0 6 6 2 12 12 12 21 0 8 3 13 6 9 4 -3 4
-13 1 -22z m-836 -96 c12 -23 1 -25 -16 -2 -7 9 -19 14 -29 10 -23 -9 -20 -27
4 -27 12 0 25 -10 32 -25 9 -21 9 -29 -5 -42 -13 -14 -21 -14 -42 -5 -20 9
-25 19 -25 47 0 63 55 93 81 44z m67 -80 l7 -52 33 38 c19 20 37 34 41 29 5
-5 0 -34 -10 -64 -9 -30 -17 -45 -18 -33 -1 12 4 34 10 50 l10 28 -33 -32
c-19 -18 -37 -33 -41 -33 -4 0 -7 20 -7 45 0 53 -16 60 -26 10 -3 -19 -11 -35
-16 -35 -6 0 -7 7 -4 16 4 9 11 37 18 61 13 55 28 45 36 -28z m689 -283 c-3
-8 -9 -31 -13 -50 -3 -20 -11 -39 -17 -43 -6 -4 -7 4 -3 23 4 16 10 39 12 51
4 15 0 23 -13 26 -12 3 -8 5 11 6 20 1 27 -3 23 -13z m53 -34 c0 -9 4 -24 10
-32 7 -12 12 -12 29 5 12 10 24 16 27 12 3 -3 -8 -15 -25 -28 -17 -13 -31 -31
-31 -41 0 -10 -4 -18 -8 -18 -4 0 -8 17 -7 38 0 20 -4 50 -8 65 -5 19 -4 27 3
22 5 -3 10 -14 10 -23z m748 -338 c12 -8 22 -23 22 -32 0 -13 -3 -12 -16 6
-20 29 -52 28 -65 -2 -8 -17 -8 -29 0 -45 12 -21 21 -25 55 -21 11 1 15 -3 12
-9 -11 -17 -44 -13 -66 9 -24 24 -26 67 -3 92 20 22 32 23 61 2z m-5022 -820
c-4 -9 -11 -36 -17 -60 -6 -24 -15 -44 -20 -44 -12 0 -11 11 6 60 8 23 15 45
15 47 0 3 -7 3 -15 -1 -8 -3 -15 -1 -15 4 0 6 12 10 26 10 20 0 25 -4 20 -16z
m85 -24 c33 -18 24 -57 -18 -78 l-37 -19 30 -16 c34 -19 21 -22 -25 -6 -40 14
-39 27 2 44 60 25 76 73 21 62 -23 -4 -31 3 -17 16 9 10 21 9 44 -3z m109 -89
c0 -21 3 -53 6 -70 4 -20 3 -31 -5 -31 -6 0 -11 11 -11 25 0 29 -41 45 -65 25
-25 -21 -17 1 18 46 40 55 57 56 57 5z m89 -67 l6 -58 33 42 c33 41 52 53 52
31 0 -26 -34 -122 -38 -106 -2 10 1 32 7 50 l11 31 -33 -32 c-18 -18 -36 -32
-39 -32 -3 0 -9 24 -13 53 l-8 52 -11 -37 c-12 -39 -26 -60 -26 -38 0 7 8 37
17 67 20 64 33 57 42 -23z m-139 -733 c0 -21 3 -60 7 -86 4 -35 3 -46 -5 -41
-7 4 -12 17 -12 30 0 32 -46 53 -70 31 -36 -33 -29 -12 16 45 26 33 51 60 55
60 5 0 9 -17 9 -39z m124 -73 c21 -30 11 -36 -12 -8 -23 28 -49 22 -58 -15 -8
-32 10 -55 45 -55 23 -1 24 -2 8 -11 -26 -15 -67 14 -67 47 0 61 53 87 84 42z
m104 -40 c7 -7 12 -18 12 -26 0 -9 -7 -5 -19 9 -16 20 -23 22 -38 13 -37 -23
-21 -91 19 -81 21 6 25 -8 3 -16 -39 -16 -75 62 -45 98 15 18 51 20 68 3z
m106 -54 c30 -30 12 -94 -26 -94 -27 0 -58 28 -58 52 0 52 50 77 84 42z m55
-68 c-9 -31 -8 -41 4 -54 23 -22 45 -8 53 32 3 20 10 36 15 36 11 0 11 4 -5
-50 -12 -39 -17 -45 -37 -42 -48 7 -61 40 -39 98 15 39 21 25 9 -20z m132 -21
c16 11 49 -15 49 -39 0 -27 -20 -89 -27 -82 -2 2 1 23 8 45 11 35 10 44 -3 57
-21 22 -47 7 -54 -32 -3 -19 -10 -34 -15 -34 -11 0 -11 0 2 41 20 63 21 65 26
51 3 -6 9 -10 14 -7z m113 -30 c-4 -8 -1 -15 5 -15 6 0 11 -4 11 -10 0 -5 -5
-9 -11 -7 -18 4 -34 -53 -20 -75 6 -10 7 -18 2 -18 -19 0 -29 33 -19 62 5 15
8 33 6 40 -5 13 11 37 24 38 4 0 5 -7 2 -15z m105 -87 c-10 -35 -19 -64 -19
-65 0 -1 14 -10 31 -18 17 -9 29 -19 26 -21 -3 -3 -21 3 -40 13 l-35 18 21 68
c11 37 23 67 28 67 4 0 -1 -28 -12 -62z m149 -44 c22 -15 31 -64 12 -64 -6 0
-24 7 -40 15 -28 15 -30 14 -30 -4 0 -24 25 -45 45 -37 8 3 15 1 15 -4 0 -6
-11 -10 -25 -10 -50 0 -70 84 -26 110 21 13 23 12 49 -6z m70 -124 c4 0 18 16
31 35 13 20 26 33 29 30 6 -6 -48 -85 -58 -85 -13 0 -20 30 -18 78 l2 47 3
-52 c2 -29 7 -53 11 -53z m144 23 c17 -16 26 -63 11 -63 -5 1 -19 7 -33 15
-34 19 -40 18 -40 -5 0 -21 27 -40 48 -33 6 3 12 0 12 -6 0 -21 -39 -11 -59
15 -25 32 -26 43 -5 72 18 26 41 28 66 5z m58 -59 c-19 -65 -30 -89 -30 -65 0
22 35 131 42 131 4 0 -2 -30 -12 -66z m-1477 -404 c-4 -14 0 -20 11 -20 9 0
16 -4 16 -10 0 -5 -7 -7 -16 -3 -9 3 -20 0 -25 -8 -7 -11 -9 -9 -9 8 0 12 -3
23 -7 26 -5 2 -3 2 4 1 6 -2 14 4 17 12 8 21 15 17 9 -6z m148 -35 c10 -20 10
-20 -6 0 -14 17 -17 18 -25 5 -8 -13 -10 -12 -10 3 0 19 -15 23 -25 6 -4 -5 7
-23 24 -40 37 -35 39 -54 9 -70 -13 -7 -24 -12 -26 -11 -10 3 -42 47 -42 56 0
6 5 3 11 -6 14 -24 25 -23 32 4 4 13 0 29 -10 40 -20 22 -11 45 19 50 24 3 31
-2 49 -37z m102 -36 c6 -10 7 -24 2 -35 -5 -11 -10 -26 -10 -34 -1 -8 -3 -21
-4 -27 -2 -20 -46 -15 -66 7 -10 11 -16 23 -12 26 3 3 10 -4 17 -15 12 -23 46
-28 53 -8 2 6 -2 20 -11 30 -14 15 -13 17 1 17 9 0 19 5 22 10 10 16 -16 42
-37 37 -10 -3 -18 -1 -18 5 0 15 52 5 63 -13z m4237 -25 c0 -28 -22 -104 -33
-111 -6 -4 -7 4 -3 22 19 76 19 85 0 85 -16 0 -17 2 -4 10 22 14 40 12 40 -6z
m-4131 -22 c13 -24 -2 -48 -41 -68 l-32 -16 28 -15 c15 -8 26 -17 23 -20 -7
-6 -67 25 -67 36 0 4 18 16 40 26 31 14 40 23 38 39 -2 16 -10 21 -31 19 -15
-1 -25 2 -22 8 10 16 54 10 64 -9z m4212 -2 c30 -17 24 -58 -11 -78 -35 -20
-37 -28 -10 -37 11 -3 20 -10 20 -16 0 -5 -16 -1 -35 8 -19 9 -35 19 -35 22 0
3 17 15 38 26 47 25 52 61 9 58 -24 -2 -27 0 -17 13 15 17 16 17 41 4z m124
-96 c0 -27 -2 -29 -36 -27 -30 2 -38 -2 -43 -19 -12 -47 -18 -6 -6 44 17 71
17 71 53 50 25 -14 32 -25 32 -48z m-4204 46 c36 -20 15 -130 -25 -130 -7 0
-21 9 -31 20 -21 23 -15 72 12 102 19 21 19 21 44 8z m115 -55 c18 -14 17 -15
-7 -6 -15 5 -30 7 -33 4 -11 -12 -6 -33 9 -33 19 0 38 -36 30 -60 -11 -33 -76
-20 -75 14 0 6 5 3 11 -6 13 -23 45 -23 53 -2 7 19 -10 44 -30 44 -19 0 -23
12 -13 38 10 26 27 28 55 7z m-228 -45 c-7 -10 -14 -18 -15 -16 -6 6 9 36 18
36 5 0 4 -9 -3 -20z"/>
<path d="M3394 7705 c-7 -18 13 -45 33 -45 19 0 28 27 13 45 -16 19 -39 19
-46 0z"/>
<path d="M3585 7595 c-25 -21 -28 -26 -15 -35 26 -17 37 -11 44 22 3 17 5 33
3 34 -1 2 -16 -8 -32 -21z"/>
<path d="M3046 7204 c-8 -21 -8 -21 9 -28 11 -4 15 1 15 19 0 28 -15 33 -24 9z"/>
<path d="M3183 7171 l-22 -28 25 -12 c34 -15 34 -16 34 29 0 47 -9 50 -37 11z"/>
<path d="M3125 6172 c-55 -4 -75 -15 -75 -44 0 -10 -9 -31 -21 -47 -11 -15
-23 -48 -25 -72 -3 -24 -8 -55 -10 -69 -5 -22 -7 -23 -18 -8 -10 13 -11 -3 -9
-85 3 -77 9 -112 24 -144 25 -53 79 -98 140 -120 l46 -17 -5 -42 c-4 -38 -1
-46 34 -83 30 -32 48 -43 79 -46 37 -4 38 -4 8 4 -113 30 -146 136 -68 214 46
46 45 64 -5 85 -28 12 -39 22 -37 33 3 12 -1 15 -15 11 -10 -2 -28 4 -38 13
-14 12 -20 14 -20 5 0 -9 -7 -8 -25 4 -13 9 -35 16 -48 16 -12 0 -28 5 -35 12
-14 14 -16 84 -3 92 5 3 15 30 21 58 17 71 36 107 64 119 20 9 41 3 139 -45
138 -66 162 -91 153 -155 -3 -24 -11 -50 -17 -57 -6 -8 -9 -14 -6 -14 9 0 -19
-88 -42 -135 -34 -70 16 -52 55 20 10 20 26 35 36 35 10 0 18 5 18 11 0 6 -9
9 -20 6 -26 -7 -25 1 5 62 35 69 34 176 -2 238 -55 95 -165 152 -278 145z
m-65 -430 c0 -15 147 -83 164 -76 20 8 21 -10 0 -30 -19 -19 -48 -21 -66 -3
-24 21 -58 38 -68 32 -4 -3 -18 7 -29 21 -22 28 -28 64 -11 64 6 0 10 -4 10
-8z"/>
<path d="M3063 5993 c-7 -2 -13 -9 -13 -15 0 -5 6 -8 13 -5 6 2 27 -2 46 -9
46 -19 51 -10 10 15 -36 22 -37 22 -56 14z"/>
<path d="M3034 5908 c-5 -8 -2 -9 10 -5 13 5 17 3 13 -7 -8 -20 39 -49 60 -38
14 9 13 13 -10 36 -27 27 -61 34 -73 14z"/>
<path d="M3270 5890 c14 -6 37 -23 53 -37 19 -19 27 -23 27 -11 0 23 -32 47
-71 53 -31 5 -32 5 -9 -5z"/>
<path d="M3233 5819 c-13 -5 -23 -11 -23 -14 0 -4 4 -4 8 -1 5 3 16 -4 26 -15
9 -12 26 -19 39 -17 12 1 28 -1 35 -6 11 -7 12 -4 4 11 -21 38 -56 55 -89 42z"/>
<path d="M3329 5563 c-13 -16 -12 -17 4 -4 9 7 17 15 17 17 0 8 -8 3 -21 -13z"/>
<path d="M3220 5523 c0 -10 6 -12 20 -8 13 4 30 -1 46 -14 37 -29 52 -26 17 3
-34 28 -83 40 -83 19z"/>
<path d="M3356 5507 c-17 -12 -17 -14 2 -37 13 -16 21 -20 26 -12 4 7 2 12 -5
12 -7 0 -9 10 -7 25 6 29 7 29 -16 12z"/>
<path d="M4094 5385 c-8 -21 6 -41 17 -24 12 19 11 39 -1 39 -6 0 -13 -7 -16
-15z"/>
<path d="M4117 5273 c-11 -10 -8 -43 3 -43 15 0 24 30 13 41 -5 5 -12 6 -16 2z"/>
<path d="M4716 4982 c-9 -26 2 -50 27 -64 17 -9 24 -7 39 12 16 20 17 25 5 44
-19 28 -63 33 -71 8z"/>
<path d="M3965 4973 c-56 -14 -103 -100 -89 -160 10 -41 39 -95 61 -116 11 -9
160 -85 331 -167 327 -158 362 -169 420 -136 62 34 80 123 41 203 -28 58 -53
74 -259 173 -96 46 -228 110 -294 142 -115 56 -169 72 -211 61z m153 -192 c16
-13 15 -13 -2 -7 -12 4 -24 0 -33 -11 -14 -17 -14 -17 -9 1 4 11 0 24 -11 33
-17 13 -16 14 5 8 17 -5 22 -2 23 12 1 15 2 15 6 -2 3 -11 12 -26 21 -34z m87
-13 c-4 -18 -14 -46 -21 -63 l-14 -30 4 31 c3 18 8 43 11 57 5 19 2 26 -12 30
-12 3 -8 5 10 6 27 1 28 -1 22 -31z m89 -14 c25 -24 20 -53 -11 -66 -40 -17
-40 -17 -13 -39 l25 -20 -37 18 c-21 9 -38 20 -38 23 0 4 18 14 41 23 30 12
40 21 37 34 -2 12 -12 18 -31 18 -27 -1 -33 5 -20 18 11 12 31 8 47 -9z m146
-70 l25 -15 -32 6 c-26 5 -33 3 -33 -9 0 -9 7 -16 15 -16 22 0 38 -36 25 -60
-6 -11 -15 -20 -21 -20 -21 0 -49 21 -49 38 1 16 1 16 11 0 5 -10 19 -18 29
-18 30 0 26 38 -5 50 -28 11 -29 14 -15 41 13 23 17 23 50 3z m90 -59 c0 -26
-18 -33 -37 -14 -16 16 -5 39 18 39 14 0 19 -7 19 -25z m-190 -5 c0 -5 -4 -10
-10 -10 -5 0 -10 5 -10 10 0 6 5 10 10 10 6 0 10 -4 10 -10z m200 -40 c-30
-22 -59 -40 -64 -40 -13 0 -4 7 51 46 68 47 79 42 13 -6z m25 -50 c0 -36 -29
-33 -33 3 -3 23 0 28 15 25 12 -2 18 -12 18 -28z"/>
<path d="M4500 4625 c0 -8 5 -15 10 -15 6 0 10 7 10 15 0 8 -4 15 -10 15 -5 0
-10 -7 -10 -15z"/>
<path d="M4540 4530 c0 -11 5 -20 10 -20 6 0 10 9 10 20 0 11 -4 20 -10 20 -5
0 -10 -9 -10 -20z"/>
<path d="M2747 4838 c-2 -13 -8 -30 -11 -40 -9 -21 29 -35 49 -18 21 18 18 57
-4 70 -27 14 -28 13 -34 -12z"/>
<path d="M4914 3765 c-9 -22 22 -53 37 -38 15 15 7 47 -14 51 -9 2 -20 -4 -23
-13z"/>
<path d="M1676 2141 c-17 -19 -17 -20 3 -31 19 -10 21 -8 21 20 0 35 -1 36
-24 11z"/>
<path d="M1617 1325 c-17 -23 -17 -25 2 -35 29 -15 31 -13 31 25 0 41 -8 44
-33 10z"/>
<path d="M1930 1155 c-21 -55 38 -93 62 -39 14 31 1 57 -31 62 -15 3 -24 -4
-31 -23z"/>
<path d="M2495 910 c-3 -5 9 -16 27 -23 35 -15 48 -6 28 18 -14 17 -46 20 -55
5z"/>
<path d="M2711 817 c-8 -11 -5 -16 15 -25 45 -21 60 -9 28 22 -19 20 -28 20
-43 3z"/>
<path d="M1437 260 c-4 -16 -1 -20 11 -18 19 4 23 29 6 35 -6 2 -14 -6 -17
-17z"/>
<path d="M5974 168 c-9 -30 23 -55 44 -34 16 16 10 31 -18 46 -15 8 -20 6 -26
-12z"/>
<path d="M1781 147 c-19 -56 10 -94 44 -57 24 27 17 84 -12 88 -16 2 -24 -4
-32 -31z"/>
<path d="M3395 8200 c17 -4 39 -8 50 -8 16 0 15 2 -5 8 -14 4 -36 8 -50 8 -22
0 -22 -1 5 -8z"/>
<path d="M3485 8180 c11 -5 27 -9 35 -9 9 0 8 4 -5 9 -11 5 -27 9 -35 9 -9 0
-8 -4 5 -9z"/>
<path d="M3580 8150 c8 -5 20 -10 25 -10 6 0 3 5 -5 10 -8 5 -19 10 -25 10 -5
0 -3 -5 5 -10z"/>
<path d="M3669 8114 c30 -13 56 -23 58 -20 4 4 -92 46 -104 45 -4 0 16 -11 46
-25z"/>
<path d="M3960 7975 c113 -57 210 -104 215 -104 6 0 -82 47 -195 104 -113 57
-209 104 -215 104 -5 0 82 -47 195 -104z"/>
<path d="M4204 7856 c11 -9 24 -16 30 -16 12 0 7 5 -24 19 -24 11 -24 11 -6
-3z"/>
<path d="M4257 7829 c7 -7 15 -10 18 -7 3 3 -2 9 -12 12 -14 6 -15 5 -6 -5z"/>
<path d="M4337 7789 c7 -7 15 -10 18 -7 3 3 -2 9 -12 12 -14 6 -15 5 -6 -5z"/>
<path d="M5091 7416 c2 -2 15 -9 29 -15 24 -11 24 -11 6 3 -16 13 -49 24 -35
12z"/>
<path d="M5211 7356 c2 -2 15 -9 29 -15 24 -11 24 -11 6 3 -16 13 -49 24 -35
12z"/>
<path d="M5910 7005 c344 -173 630 -314 635 -314 6 0 -271 141 -615 314 -344
173 -629 314 -635 314 -5 0 271 -141 615 -314z"/>
<path d="M2066 6583 c-26 -93 -56 -186 -66 -208 -33 -74 -30 -124 5 -95 7 6
26 10 41 8 38 -4 50 21 115 240 52 172 52 173 32 191 -11 10 -33 21 -49 25
l-29 6 -49 -167z m58 85 c-38 -130 -86 -274 -96 -283 -7 -7 -8 -2 -3 15 5 14
26 84 48 155 21 72 42 138 44 148 3 9 9 17 14 17 4 0 1 -24 -7 -52z"/>
<path d="M6560 6685 c0 -7 61 -37 66 -33 2 3 -12 12 -31 21 -19 9 -35 15 -35
12z"/>
<path d="M6707 6609 c7 -7 15 -10 18 -7 3 3 -2 9 -12 12 -14 6 -15 5 -6 -5z"/>
<path d="M7280 6326 c0 -3 14 -12 30 -21 17 -9 30 -13 30 -11 0 3 -13 12 -30
21 -16 9 -30 13 -30 11z"/>
<path d="M7370 6276 c0 -3 9 -10 20 -16 11 -6 20 -8 20 -6 0 3 -9 10 -20 16
-11 6 -20 8 -20 6z"/>
<path d="M7435 6235 c11 -9 29 -21 40 -26 l20 -10 -20 16 c-11 9 -29 21 -40
26 l-20 10 20 -16z"/>
<path d="M7500 6196 c0 -2 8 -10 18 -17 15 -13 16 -12 3 4 -13 16 -21 21 -21
13z"/>
<path d="M7540 6166 c0 -2 8 -10 18 -17 15 -13 16 -12 3 4 -13 16 -21 21 -21
13z"/>
<path d="M7580 6137 c0 -2 15 -16 33 -33 l32 -29 -29 33 c-28 30 -36 37 -36
29z"/>
<path d="M7660 6066 c0 -2 8 -10 18 -17 15 -13 16 -12 3 4 -13 16 -21 21 -21
13z"/>
<path d="M7730 5985 c13 -14 26 -25 28 -25 3 0 -5 11 -18 25 -13 14 -26 25
-28 25 -3 0 5 -11 18 -25z"/>
<path d="M1907 5933 c-5 -4 -14 -8 -20 -8 -7 -1 -11 -6 -10 -12 2 -11 -41
-161 -133 -463 -72 -236 -98 -306 -126 -348 -36 -53 -34 -78 7 -74 63 7 94 58
150 242 20 69 68 227 106 351 38 124 69 237 69 251 0 30 -31 73 -43 61z m-21
-100 c-28 -118 -196 -656 -203 -650 -5 5 65 245 142 492 26 83 50 158 52 168
8 28 16 19 9 -10z"/>
<path d="M7790 5906 c0 -2 8 -10 18 -17 15 -13 16 -12 3 4 -13 16 -21 21 -21
13z"/>
<path d="M7830 5850 c6 -11 13 -20 16 -20 2 0 0 9 -6 20 -6 11 -13 20 -16 20
-2 0 0 -9 6 -20z"/>
<path d="M7870 5780 c6 -11 13 -20 16 -20 2 0 0 9 -6 20 -6 11 -13 20 -16 20
-2 0 0 -9 6 -20z"/>
<path d="M7972 5500 c0 -14 2 -19 5 -12 2 6 2 18 0 25 -3 6 -5 1 -5 -13z"/>
<path d="M7982 5440 c0 -14 2 -19 5 -12 2 6 2 18 0 25 -3 6 -5 1 -5 -13z"/>
<path d="M7994 5290 c0 -52 1 -74 3 -47 2 26 2 68 0 95 -2 26 -3 4 -3 -48z"/>
<path d="M1565 4837 c-11 -7 -22 -23 -23 -37 -4 -25 -116 -399 -193 -640 -23
-75 -51 -140 -68 -163 -38 -50 -32 -81 13 -71 39 8 63 29 87 75 18 36 239 751
239 774 0 11 -29 76 -33 74 -1 -1 -11 -6 -22 -12z m-29 -159 c-90 -307 -178
-580 -183 -574 -4 4 97 351 170 580 37 119 49 114 13 -6z"/>
<path d="M2002 77 c-7 -8 -15 -28 -18 -46 -7 -32 -6 -32 27 -29 32 3 34 5 34
43 0 43 -21 58 -43 32z"/>
</g>
</svg>
