<svg width="46" height="46" viewBox="0 0 46 46" fill="none" xmlns="http://www.w3.org/2000/svg">
<path d="M4.25016 33.9371V41.7496H12.0627L35.1043 18.6871L27.2918 10.8746L4.25016 33.9371ZM45.1043 36.2496L36.2502 45.1038L25.4168 34.2704L29.1043 30.5829L31.1877 32.6663L36.3335 27.4996L39.2918 30.4579L36.2502 33.4163L38.4585 35.4996L41.4168 32.5829L45.1043 36.2496ZM11.771 20.5621L0.895996 9.74961L9.75016 0.895447L13.4168 4.58295L8.271 9.74961L10.5002 11.9579L15.6252 6.79128L18.5835 9.74961L15.6252 12.6871L17.7085 14.7704L11.771 20.5621ZM41.146 12.5829C41.9585 11.7704 41.9585 10.4996 41.146 9.64545L36.271 4.85378C35.5002 4.04128 34.146 4.04128 33.3335 4.85378L29.5002 8.66628L37.3127 16.4788L41.146 12.5829Z" fill="#8838B4"/>
</svg>
