<?xml version="1.0" encoding="UTF-8"?>
<!DOCTYPE svg PUBLIC "-//W3C//DTD SVG 1.1//EN" "http://www.w3.org/Graphics/SVG/1.1/DTD/svg11.dtd">
<!-- Creator: CorelDRAW X8 -->
<svg xmlns="http://www.w3.org/2000/svg" xml:space="preserve" width="750px" height="750px" version="1.1" style="shape-rendering:geometricPrecision; text-rendering:geometricPrecision; image-rendering:optimizeQuality; fill-rule:evenodd; clip-rule:evenodd"
viewBox="0 0 750 750"
 xmlns:xlink="http://www.w3.org/1999/xlink"
 enable-background="new 0 0 841.9 595.3">
 <defs>
  <style type="text/css">
   <![CDATA[
    .fil0 {fill:#61DAFB}
    .fil1 {fill:#5B5B5B;fill-rule:nonzero}
   ]]>
  </style>
 </defs>
 <g id="Layer_x0020_1">
  <metadata id="CorelCorpID_0Corel-Layer"/>
  <g id="_1904113622864">
   <path class="fil0" d="M615 315c0,-32 -40,-62 -101,-81 14,-62 8,-111 -20,-127 -6,-4 -14,-6 -22,-6l0 22c5,0 8,1 11,3 14,7 20,36 15,74 -1,9 -3,18 -5,28 -19,-4 -40,-8 -62,-10 -13,-18 -27,-35 -41,-49 32,-30 62,-46 82,-46l0 -22c0,0 0,0 0,0 -26,0 -62,19 -97,53 -36,-34 -71,-52 -98,-52l0 21c20,0 50,16 82,46 -13,14 -27,31 -40,49 -22,2 -43,6 -62,10 -2,-9 -4,-19 -5,-28 -5,-37 1,-66 14,-74 3,-2 7,-3 11,-3l0 -21c0,0 0,0 0,0 -8,0 -15,1 -22,5 -27,16 -33,65 -19,127 -61,19 -101,49 -101,81 0,31 40,61 101,80 -14,62 -8,112 20,128 6,3 14,5 22,5 27,0 62,-19 97,-52 36,33 71,52 98,52 8,0 16,-2 22,-6 28,-16 34,-65 20,-127 60,-19 100,-49 100,-80zm-128 -66c-3,13 -8,26 -13,39 -4,-8 -8,-16 -13,-23 -4,-8 -9,-16 -14,-23 14,2 28,4 40,7zm-44 105c-8,13 -16,25 -24,37 -14,1 -29,2 -44,2 -15,0 -30,-1 -44,-2 -8,-12 -16,-24 -24,-37 -7,-13 -14,-26 -20,-39 6,-13 13,-26 20,-39 8,-13 16,-26 24,-37 14,-2 29,-2 44,-2 15,0 30,0 44,2 8,11 16,24 24,37 7,12 14,25 20,39 -6,13 -13,26 -20,39zm31 -13c6,13 10,26 14,39 -13,3 -27,5 -41,8 5,-8 10,-16 15,-24 4,-7 8,-15 12,-23zm-99 104c-9,-9 -18,-20 -27,-31 9,0 18,0 27,0 9,0 18,0 27,0 -9,11 -18,22 -27,31zm-72 -57c-14,-3 -28,-5 -41,-8 4,-13 9,-26 14,-39 4,8 8,16 12,24 5,7 10,15 15,23zm72 -204c9,10 18,20 27,31 -9,0 -18,0 -27,0 -9,0 -18,0 -27,0 9,-11 18,-21 27,-31zm-73 58c-4,7 -9,15 -14,23 -4,8 -8,16 -12,23 -6,-13 -10,-26 -14,-39 13,-3 26,-5 40,-7zm-88 122c-35,-15 -57,-34 -57,-49 0,-16 22,-35 57,-50 8,-3 18,-7 27,-10 6,19 13,39 22,60 -9,20 -16,40 -22,59 -9,-3 -19,-6 -27,-10zm53 140c-14,-8 -20,-37 -15,-74 1,-9 3,-19 5,-29 19,5 40,8 62,11 13,18 27,34 41,49 -32,29 -62,45 -82,45 -5,0 -9,-1 -11,-2zm231 -75c5,38 -1,67 -14,74 -3,2 -7,3 -11,3 -20,0 -50,-16 -82,-46 13,-14 27,-30 40,-48 22,-3 43,-6 62,-11 2,10 4,19 5,28zm38 -65c-8,4 -18,7 -27,10 -6,-19 -13,-39 -22,-60 9,-20 16,-40 22,-59 9,3 18,7 27,10 35,15 57,34 57,50 0,15 -22,34 -57,49z"/>
   <polygon class="fil0" points="277,102 277,102 "/>
   <path class="fil0" d="M420 315c0,-25 -20,-45 -45,-45 -25,0 -45,20 -45,45 0,24 20,44 45,44 25,0 45,-20 45,-44z"/>
   <polygon class="fil0" points="472,101 472,101 "/>
  </g>
  <path class="fil1" d="M242 576l10 0c11,0 16,3 16,11 0,9 -5,13 -16,13l-10 0 0 -24zm45 71c3,0 2,-2 2,-2l-19 -33c9,-4 16,-12 16,-25 0,-19 -15,-26 -32,-26l-28 0c-1,0 -2,1 -2,2l0 83c0,0 0,1 2,1l14 0c1,0 2,0 2,-1l0 -31 10 0 17 32c1,0 1,0 2,0l16 0zm8 -32c0,21 14,34 32,34 8,0 16,-3 22,-7 1,-1 1,-1 1,-2l-5 -9c-1,-1 -2,-1 -3,-1 -4,3 -8,5 -13,5 -9,0 -15,-5 -17,-15l38 0c1,0 1,0 2,-1 0,-2 0,-5 0,-7 0,-18 -9,-32 -27,-32 -16,0 -30,14 -30,35zm17 -7c2,-9 7,-13 13,-13 7,0 11,4 11,13l-24 0zm48 21c0,12 9,20 21,20 7,0 13,-3 18,-7l1 4c0,1 1,1 1,1l12 0c1,0 2,0 2,-1l0 -37c0,-18 -8,-29 -25,-29 -10,0 -19,4 -26,9 -1,0 -1,1 -1,2l5 10c1,1 2,1 3,0 5,-3 11,-6 16,-6 7,0 10,4 10,10 -24,2 -37,10 -37,24l0 0zm18 -1c0,-5 4,-9 19,-11l0 11c-4,4 -8,6 -12,6 -5,0 -7,-2 -7,-6l0 0zm47 -13c0,21 14,34 32,34 8,0 15,-3 22,-9 0,0 0,-1 0,-2l-6 -9c-1,-1 -2,-1 -3,0 -3,2 -7,5 -11,5 -9,0 -16,-7 -16,-19 0,-12 7,-19 16,-19 3,0 6,1 10,4 0,0 1,0 2,-1l7 -9c0,0 0,-1 0,-2 -5,-4 -11,-8 -20,-8 -17,0 -33,13 -33,35zm65 10c0,14 6,24 22,24 5,0 9,-1 13,-2 1,-1 1,-2 1,-2l-3 -11c0,-2 -1,-1 -2,-1 -1,0 -4,1 -6,1 -5,0 -7,-2 -7,-9l0 -28 14 0c1,0 2,-1 2,-2l0 -12c0,0 -1,-1 -2,-1l-14 0 0 -16c0,0 0,-1 -1,-1l-13 0c0,0 -1,0 -1,1l-2 16 -8 1c-1,0 -2,0 -2,1l0 11c0,1 1,2 2,2l7 0 0 28z"/>
 </g>
</svg>
