<svg xmlns="http://www.w3.org/2000/svg" viewBox="0 0 500 300"><defs><style>.cls-1{isolation:isolate;}.cls-2{fill:#5e9eee;}.cls-3{fill:#2a6bb1;}.cls-4{fill:#4e95ec;}.cls-5{fill:#67dea6;}.cls-6{fill:#9bc3f3;}.cls-7{fill:#2059a8;}.cls-8{fill:#4b7eca;}.cls-9{fill:#9feed3;}.cls-10{fill:#64d895;}.cls-11{fill:#93c5fa;}.cls-12{fill:#6db2f8;opacity:0.2;}.cls-12,.cls-15{mix-blend-mode:multiply;}.cls-13{fill:#61a2f0;}.cls-14{fill:#306bc4;}.cls-15{opacity:0.1;}.cls-16{fill:#227c5e;}.cls-17,.cls-19,.cls-20{fill:none;stroke:#2059b0;stroke-linecap:round;stroke-linejoin:round;}.cls-17{stroke-width:5.267px;}.cls-18{fill:#ddedfd;opacity:0.3;}.cls-19{stroke-width:4.69px;}.cls-20{stroke-width:5.275px;}</style></defs><g class="cls-1"><g id="Layer_1" data-name="Layer 1"><g class="cls-1"><path class="cls-2" d="M260.567,86.948a5.691,5.691,0,0,1,2.108.55,6.725,6.725,0,0,1,1.823,1.283,7.273,7.273,0,0,1,1.36,1.846,7.045,7.045,0,0,1,.72,2.243,6.2,6.2,0,0,1-.1,2.34,5.213,5.213,0,0,1-.907,1.931A4.641,4.641,0,0,1,264,98.465a4.736,4.736,0,0,1-2.09.517l-113.285,2.405h-.214l-.106,0-.106,0a7.435,7.435,0,0,1-2.624-.593,7.7,7.7,0,0,1-2.217-1.438,7.472,7.472,0,0,1-1.584-2.091,6.9,6.9,0,0,1-.729-2.546,6.352,6.352,0,0,1,.331-2.647A6.124,6.124,0,0,1,142.7,89.9a6.321,6.321,0,0,1,2.1-1.462,6.82,6.82,0,0,1,2.657-.547l112.776-.956h.17l.085,0Z"/><path class="cls-3" d="M229.605,42.606a6.293,6.293,0,0,1,2.176.637,7.246,7.246,0,0,1,1.866,1.34,7.435,7.435,0,0,1,1.376,1.87,6.778,6.778,0,0,1,.705,2.228,5.7,5.7,0,0,1-.147,2.282,4.816,4.816,0,0,1-.976,1.845,4.587,4.587,0,0,1-1.654,1.222,5.081,5.081,0,0,1-2.179.407L113.063,51.5l-.111,0-.111-.005-.111-.007-.11-.008a8.261,8.261,0,0,1-2.715-.7,8.358,8.358,0,0,1-2.276-1.512,7.632,7.632,0,0,1-1.606-2.121,6.591,6.591,0,0,1-.707-2.528,5.808,5.808,0,0,1,.395-2.572,5.742,5.742,0,0,1,1.414-2.055,6.368,6.368,0,0,1,2.2-1.333,7.348,7.348,0,0,1,2.77-.413l117.154,4.347.088,0,.087.006.088.007Z"/><path class="cls-4" d="M292.724,140.888a9.482,9.482,0,0,1-.082,3.381,8.059,8.059,0,0,1-1.192,2.853,6.821,6.821,0,0,1-2.113,2.032,6.4,6.4,0,0,1-2.845.905L104.854,164.1l-.166.011-.166.009-.166.006-.165.005a11.176,11.176,0,0,1-4.086-.692,10.868,10.868,0,0,1-3.423-2.045,10.365,10.365,0,0,1-2.409-3.117,10.021,10.021,0,0,1-1.045-3.9l-.7-11.665-.153-2.538-.184-3.074a9.7,9.7,0,0,1,.619-4.056,10.069,10.069,0,0,1,2.14-3.369,10.679,10.679,0,0,1,3.312-2.337,11.166,11.166,0,0,1,4.139-.975l179.445-7.718.116,0,.115,0h.115l.114,0a7.361,7.361,0,0,1,2.876.684,8.887,8.887,0,0,1,2.5,1.736,10.016,10.016,0,0,1,1.882,2.555,10.2,10.2,0,0,1,1.024,3.149Zm-24.866.46a4.829,4.829,0,0,0,2.116-.635,5.025,5.025,0,0,0,1.587-1.456,5.817,5.817,0,0,0,.911-2.06,6.755,6.755,0,0,0,.091-2.452,7.3,7.3,0,0,0-.738-2.314,7.148,7.148,0,0,0-1.385-1.869,6.458,6.458,0,0,0-1.851-1.26,5.5,5.5,0,0,0-2.138-.481h-.172l-.086,0-.086,0L151.571,134.9a6.957,6.957,0,0,0-2.7.693,6.813,6.813,0,0,0-3.469,3.954,6.917,6.917,0,0,0-.331,2.788,7.175,7.175,0,0,0,.749,2.639,7.407,7.407,0,0,0,3.878,3.531,7.207,7.207,0,0,0,2.672.5h.108l.108,0,.109,0,.109-.006,115.058-7.643M111.126,155.724l3.7-.271-1.055-14.193,6.074-.364-.271-3.495-15.914.9.25,3.553,6.184-.371,1.034,14.243m13.437-.982-.647-8.222,3.6-.236-.282-3.494-10.849.676.268,3.526,3.645-.235.636,8.251,3.632-.266"/><path class="cls-2" d="M266.451,128.821a5.5,5.5,0,0,1,2.138.481,6.458,6.458,0,0,1,1.851,1.26,7.148,7.148,0,0,1,1.385,1.869,7.3,7.3,0,0,1,.738,2.314,6.755,6.755,0,0,1-.091,2.452,5.817,5.817,0,0,1-.911,2.06,5.04,5.04,0,0,1-1.587,1.457,4.828,4.828,0,0,1-2.116.634L152.8,148.991l-.108.006-.109,0-.108,0h-.108a7.207,7.207,0,0,1-2.672-.5,7.4,7.4,0,0,1-3.878-3.531,7.175,7.175,0,0,1-.749-2.639,6.917,6.917,0,0,1,.331-2.788,6.813,6.813,0,0,1,3.469-3.954,6.957,6.957,0,0,1,2.7-.693l114.536-6.071.086,0,.086,0h.172Z"/><path class="cls-5" d="M287.559,171.713a5.061,5.061,0,0,1,2.1.4,6.047,6.047,0,0,1,1.834,1.216,7.049,7.049,0,0,1,1.384,1.863,7.583,7.583,0,0,1,.754,2.35,7.29,7.29,0,0,1-.058,2.53,6.341,6.341,0,0,1-.868,2.163,5.288,5.288,0,0,1-1.539,1.57,4.71,4.71,0,0,1-2.068.748L176.122,197.545l-.107.011-.106.009-.107.008c-.035,0-.071,0-.106.006a6.686,6.686,0,0,1-2.634-.4,6.94,6.94,0,0,1-2.241-1.351,7.207,7.207,0,0,1-1.617-2.116,7.433,7.433,0,0,1-.768-2.687,7.536,7.536,0,0,1,.29-2.888,7.4,7.4,0,0,1,1.288-2.458,7.074,7.074,0,0,1,2.072-1.771,6.76,6.76,0,0,1,2.648-.835l112.488-11.341.085-.007q.042,0,.084-.006l.084,0Z"/><path class="cls-6" d="M122.905,103.693a1.8,1.8,0,0,1-.1.761,1.827,1.827,0,0,1-.389.632,1.939,1.939,0,0,1-.618.438,2.055,2.055,0,0,1-.783.177l-14.571.4h-.131a2.282,2.282,0,0,1-1.448-.584,2.111,2.111,0,0,1-.468-.605,1.925,1.925,0,0,1-.209-.739l-.984-13.8a1.774,1.774,0,0,1,.114-.762,1.82,1.82,0,0,1,.407-.627,1.963,1.963,0,0,1,.637-.428,2.111,2.111,0,0,1,.8-.164l14.471-.162h.1l.033,0a2.227,2.227,0,0,1,.759.175,2.253,2.253,0,0,1,.637.411,2.116,2.116,0,0,1,.454.591,1.9,1.9,0,0,1,.206.717Zm-16.677-.561,14.554-.362L115.7,97.019l-3.293,4.492-2.83-2.9-3.347,4.517"/><polygon class="cls-4" points="112.405 101.511 115.698 97.019 120.782 102.77 106.228 103.132 109.575 98.615 112.405 101.511"/><path class="cls-7" d="M255.758,59.25a8.11,8.11,0,0,1-.158,3.168A6.79,6.79,0,0,1,254.312,65a6.235,6.235,0,0,1-2.217,1.728,6.724,6.724,0,0,1-2.943.607L62.748,65.1l-.17,0-.17-.006-.17-.008-.169-.01a12.828,12.828,0,0,1-4.162-.993,12.314,12.314,0,0,1-3.456-2.2,10.793,10.793,0,0,1-2.4-3.124,9.189,9.189,0,0,1-.986-3.742L50.043,31.02a8.034,8.034,0,0,1,.715-3.714,8.485,8.485,0,0,1,2.252-2.938,10.035,10.035,0,0,1,3.424-1.874,11.92,11.92,0,0,1,4.239-.532l183.546,9.1.118.007.118.009.118.01.118.013a8.563,8.563,0,0,1,2.931.9,10.011,10.011,0,0,1,2.522,1.846,10.337,10.337,0,0,1,1.871,2.554,9.456,9.456,0,0,1,.976,3.03Zm-24.986-4.813a5.081,5.081,0,0,0,2.179-.407,4.587,4.587,0,0,0,1.654-1.222,4.816,4.816,0,0,0,.976-1.845,5.7,5.7,0,0,0,.147-2.282,6.769,6.769,0,0,0-.7-2.228,7.4,7.4,0,0,0-1.377-1.87,7.229,7.229,0,0,0-1.866-1.34,6.293,6.293,0,0,0-2.176-.637l-.088-.008-.087-.007-.088-.006-.088,0L112.1,38.234a7.348,7.348,0,0,0-2.77.413,6.377,6.377,0,0,0-2.2,1.333,5.734,5.734,0,0,0-1.414,2.055,5.808,5.808,0,0,0-.395,2.572,6.591,6.591,0,0,0,.707,2.528,7.632,7.632,0,0,0,1.606,2.121,8.358,8.358,0,0,0,2.276,1.512,8.261,8.261,0,0,0,2.715.7l.111.008.11.007.111.005.111,0,117.709,2.942M76.993,32.78,65.337,40.687l2.3,1.593L78,49.411l9.344-6.55L89.4,41.43,76.993,32.78M78.371,55.5l11.423-8.092-2.238-1.559-9.383,6.609L67.8,45.329l-2.126,1.463,12.7,8.708"/><polygon class="cls-8" points="78.003 49.411 67.642 42.28 65.337 40.687 76.993 32.78 89.399 41.43 87.347 42.861 78.003 49.411"/><polygon class="cls-8" points="87.556 45.849 89.794 47.408 78.371 55.5 65.671 46.792 67.798 45.329 78.173 52.458 87.556 45.849"/><path class="cls-5" d="M294.355,216.766a4.873,4.873,0,0,1,2.133.321,5.771,5.771,0,0,1,1.863,1.188,6.934,6.934,0,0,1,1.409,1.889,7.828,7.828,0,0,1,.775,2.428,7.934,7.934,0,0,1-.048,2.651,7.059,7.059,0,0,1-.87,2.306,5.8,5.8,0,0,1-1.552,1.718,4.89,4.89,0,0,1-2.093.881l-114.686,19.02-.109.017-.108.015-.109.014-.108.011a6.489,6.489,0,0,1-2.683-.293,6.608,6.608,0,0,1-2.285-1.311,7.09,7.09,0,0,1-1.652-2.144,7.759,7.759,0,0,1-.79-2.785,8.3,8.3,0,0,1,1.593-5.7,7.727,7.727,0,0,1,2.1-1.96,6.985,6.985,0,0,1,2.693-1l114.18-17.228.086-.012.085-.011.086-.008Z"/><polygon class="cls-6" points="127.513 146.284 123.916 146.52 124.563 154.742 120.931 155.008 120.295 146.757 116.65 146.992 116.383 143.466 127.231 142.79 127.513 146.284"/><polygon class="cls-9" points="153.874 193.666 150.18 194.082 150.962 202.936 147.225 203.388 146.454 194.501 142.703 194.918 142.376 191.115 153.537 189.909 153.874 193.666"/><path class="cls-4" d="M286.461,99.6a8.765,8.765,0,0,1-.094,3.229,7.262,7.262,0,0,1-1.187,2.679,6.177,6.177,0,0,1-4.908,2.594l-178.713,5.641-.163,0h-.325c-.054,0-.109,0-.162,0a11.5,11.5,0,0,1-4-.832,11.332,11.332,0,0,1-3.351-2.092A10.52,10.52,0,0,1,91.2,107.75a9.626,9.626,0,0,1-1.018-3.758l-.427-7.125-.145-2.431-.416-6.94a8.857,8.857,0,0,1,.612-3.841,9.044,9.044,0,0,1,2.1-3.121,9.876,9.876,0,0,1,3.25-2.088,10.925,10.925,0,0,1,4.059-.756l176.586.184h.115l.115,0,.114,0,.115.007a7.667,7.667,0,0,1,2.835.775,9.226,9.226,0,0,1,2.46,1.765,10.149,10.149,0,0,1,1.849,2.522,9.862,9.862,0,0,1,1,3.055Zm-24.548-.619a4.736,4.736,0,0,0,2.09-.517,4.641,4.641,0,0,0,1.57-1.324,5.221,5.221,0,0,0,.907-1.931,6.208,6.208,0,0,0,.1-2.341,7.047,7.047,0,0,0-.72-2.242,7.273,7.273,0,0,0-1.36-1.846,6.725,6.725,0,0,0-1.823-1.283,5.712,5.712,0,0,0-2.108-.551l-.084,0-.085,0h-.17L147.452,87.9a6.82,6.82,0,0,0-2.657.547,6.306,6.306,0,0,0-2.1,1.462,6.115,6.115,0,0,0-1.32,2.162,6.343,6.343,0,0,0-.331,2.645,6.9,6.9,0,0,0,.729,2.548,7.462,7.462,0,0,0,1.584,2.092,7.685,7.685,0,0,0,2.217,1.439,7.435,7.435,0,0,0,2.624.593l.106,0,.106,0h.214l113.285-2.405m-140.9,6.719a2.055,2.055,0,0,0,.783-.177,1.939,1.939,0,0,0,.618-.438,1.827,1.827,0,0,0,.389-.632,1.8,1.8,0,0,0,.1-.761l-1.08-13.562a1.9,1.9,0,0,0-.206-.717,2.116,2.116,0,0,0-.454-.591,2.253,2.253,0,0,0-.637-.411,2.227,2.227,0,0,0-.759-.175l-.033,0h-.1l-14.471.162a2.111,2.111,0,0,0-.8.164,1.963,1.963,0,0,0-.637.428,1.82,1.82,0,0,0-.407.627,1.774,1.774,0,0,0-.114.762l.984,13.8a1.925,1.925,0,0,0,.209.739,2.111,2.111,0,0,0,.468.605,2.282,2.282,0,0,0,1.448.584h.131l14.571-.4"/><polygon class="cls-6" points="119.843 140.897 113.769 141.26 114.824 155.453 111.126 155.724 110.091 141.481 103.908 141.851 103.658 138.299 119.572 137.401 119.843 140.897"/><path class="cls-10" d="M315.83,182.521A10.234,10.234,0,0,1,315.8,186a8.766,8.766,0,0,1-1.123,2.983,7.151,7.151,0,0,1-2.037,2.179,6.2,6.2,0,0,1-2.768,1.053L132.559,214.6l-.162.019-.163.016-.162.014-.161.012a10.318,10.318,0,0,1-4-.53,10.128,10.128,0,0,1-5.774-5.045,10.429,10.429,0,0,1-1.076-3.958l-.469-6.618-.185-2.61-.6-8.474a10.561,10.561,0,0,1,.548-4.194,10.922,10.922,0,0,1,5.249-6.1,10.718,10.718,0,0,1,4.033-1.182l175.255-15.786.114-.009.114-.007.114,0,.113,0a6.805,6.805,0,0,1,2.818.576,8.325,8.325,0,0,1,2.465,1.673,9.8,9.8,0,0,1,1.874,2.54,10.541,10.541,0,0,1,1.043,3.189ZM289.1,184.554a4.71,4.71,0,0,0,2.068-.748,5.288,5.288,0,0,0,1.539-1.57,6.321,6.321,0,0,0,.868-2.163,7.29,7.29,0,0,0,.058-2.53,7.583,7.583,0,0,0-.754-2.35,7.049,7.049,0,0,0-1.384-1.863,6.029,6.029,0,0,0-1.834-1.216,5.061,5.061,0,0,0-2.1-.4q-.042,0-.084,0l-.084,0-.084.007-.085.007L174.734,183.075a6.76,6.76,0,0,0-2.648.835,7.074,7.074,0,0,0-2.072,1.771,7.4,7.4,0,0,0-1.288,2.458,7.536,7.536,0,0,0-.29,2.888,7.433,7.433,0,0,0,.768,2.687,7.22,7.22,0,0,0,1.617,2.116,6.92,6.92,0,0,0,2.241,1.35,6.669,6.669,0,0,0,2.634.4c.035,0,.071,0,.106-.006l.107-.008.106-.009.107-.011L289.1,184.554M137.134,204.6l3.808-.456-1.292-15.295,6.254-.659-.326-3.769L129.187,186.1l.308,3.83,6.372-.677,1.267,15.348m13.828-1.667-.782-8.854,3.694-.416-.337-3.757-11.161,1.206.327,3.8,3.751-.417.771,8.887,3.737-.452"/><polygon class="cls-9" points="145.904 188.193 139.65 188.852 140.942 204.147 137.134 204.603 135.867 189.255 129.495 189.932 129.187 186.102 145.578 184.424 145.904 188.193"/><polygon class="cls-4" points="89.61 94.436 89.755 96.867 67.933 97.278 66.528 97.305 66.39 94.823 67.811 94.799 89.61 94.436"/><path class="cls-9" d="M155.65,254.634a2.368,2.368,0,0,1-.088.878,2.454,2.454,0,0,1-.386.774,2.378,2.378,0,0,1-.622.587,2.17,2.17,0,0,1-.8.314L138.9,259.742l-.036.006-.035,0-.036,0-.035,0a2.011,2.011,0,0,1-.8-.078,1.934,1.934,0,0,1-.679-.376,2,2,0,0,1-.486-.62,2.183,2.183,0,0,1-.225-.81l-1.25-15.522a2.323,2.323,0,0,1,.1-.881,2.455,2.455,0,0,1,.405-.771,2.409,2.409,0,0,1,.643-.577,2.207,2.207,0,0,1,.816-.3l14.751-2.264.034-.005.034,0,.034,0,.034,0a1.927,1.927,0,0,1,1.437.467,2,2,0,0,1,.472.607,2.13,2.13,0,0,1,.221.785ZM138.629,256.4l14.841-2.51-5.294-5.79-3.277,5.569-2.935-2.881-3.335,5.612"/><path class="cls-10" d="M323.024,226.752a11.146,11.146,0,0,1-.015,3.643,9.772,9.772,0,0,1-1.124,3.179,7.86,7.86,0,0,1-2.052,2.379,6.459,6.459,0,0,1-2.8,1.237L136.94,269.2l-.167.029-.168.025-.167.023-.167.02a10.029,10.029,0,0,1-4.081-.365,9.668,9.668,0,0,1-3.445-1.888,9.977,9.977,0,0,1-2.451-3.142,10.887,10.887,0,0,1-1.108-4.112l-.493-6.941-.194-2.737-.631-8.884a11.632,11.632,0,0,1,.55-4.438,12.193,12.193,0,0,1,2.078-3.836,11.947,11.947,0,0,1,3.263-2.83,11.093,11.093,0,0,1,4.109-1.433l177.984-24.835.114-.015.113-.012.114-.011.113-.008a6.521,6.521,0,0,1,2.856.471,7.926,7.926,0,0,1,2.5,1.635,9.659,9.659,0,0,1,1.909,2.572,10.917,10.917,0,0,1,1.07,3.292Zm-27.052,3.4a4.894,4.894,0,0,0,2.094-.881,5.814,5.814,0,0,0,1.551-1.718,7.059,7.059,0,0,0,.87-2.306,7.934,7.934,0,0,0,.048-2.651,7.843,7.843,0,0,0-.775-2.429,6.944,6.944,0,0,0-1.409-1.888,5.771,5.771,0,0,0-1.863-1.188,4.873,4.873,0,0,0-2.133-.321l-.085.008-.086.008-.085.011c-.029,0-.057.007-.085.012L179.833,234.033a6.985,6.985,0,0,0-2.693,1,7.742,7.742,0,0,0-2.1,1.96,8.294,8.294,0,0,0-1.592,5.7,7.733,7.733,0,0,0,.789,2.784,7.082,7.082,0,0,0,1.652,2.145,6.608,6.608,0,0,0,2.285,1.311,6.493,6.493,0,0,0,2.683.293l.108-.011.109-.014.108-.015.109-.017,114.686-19.02M153.755,257.187a2.17,2.17,0,0,0,.8-.314,2.378,2.378,0,0,0,.622-.587,2.454,2.454,0,0,0,.386-.774,2.368,2.368,0,0,0,.088-.878L154.3,239.4a2.13,2.13,0,0,0-.221-.785,2,2,0,0,0-.472-.607,1.927,1.927,0,0,0-1.437-.467l-.034,0-.034,0-.034,0-.034.005-14.751,2.264a2.207,2.207,0,0,0-.816.3,2.409,2.409,0,0,0-.643.577,2.455,2.455,0,0,0-.405.771,2.323,2.323,0,0,0-.1.881l1.25,15.522a2.183,2.183,0,0,0,.225.81,2,2,0,0,0,.486.62,1.934,1.934,0,0,0,.679.376,2.011,2.011,0,0,0,.8.078l.035,0,.036,0,.035,0,.036-.006,14.853-2.555"/><polygon class="cls-10" points="148.176 248.099 144.899 253.668 141.964 250.787 138.629 256.399 153.469 253.889 148.176 248.099"/><polygon class="cls-4" points="66.362 65.225 67.811 94.799 66.39 94.823 66.528 97.305 67.933 97.278 70.092 141.329 92.377 140.179 92.529 142.716 70.15 143.917 68.722 116.405 66.098 116.494 63.65 65.187 66.362 65.225"/><polygon class="cls-4" points="120.404 195.899 120.589 198.509 73.399 203.656 73.257 200.927 120.404 195.899"/><polygon class="cls-4" points="71.452 168.973 73.257 200.927 73.399 203.656 76.209 257.696 124.499 250.111 124.693 252.848 73.423 261.031 70.528 203.969 68.763 169.189 71.452 168.973"/></g><polygon class="cls-4" points="70.151 143.917 71.452 168.973 68.763 169.189 70.528 203.969 65.95 116.499 68.722 116.405 70.151 143.917"/><path class="cls-11" d="M335.977,169.79c.052,7.7,0,61.016,19.942,85.14,3.935,4.761,25.848,7.456,35.376,7.55,10.632.1,26.309-2.3,31.606-10.957,14.766-24.143,17.547-75.4,17.506-81.381-.062-9.236-24.524-13-52.983-12.812S335.915,160.555,335.977,169.79Z"/><path class="cls-12" d="M336,173.143c.041,6.107-1.439,52.01,13.625,75.5,7.72,12.037,21.516,10.77,38.487,10.656,0,0,13.585-32.808-13.245-52.435-45.267-33.114,12.574-47.018,12.574-47.018C358.983,160.037,335.937,163.908,336,173.143Z"/><ellipse class="cls-13" cx="387.513" cy="170.499" rx="50.331" ry="10.654" transform="translate(-1.142 2.62) rotate(-0.387)"/><path class="cls-14" d="M343.955,176.22c8.686-2.407,24.939-4.1,43.568-4.223s34.672,1.347,43.39,3.636c-7.2,2.935-22.724,5.381-43.328,5.479C368.956,181.2,352.673,178.51,343.955,176.22Z"/><g class="cls-15"><path class="cls-16" d="M337.184,170.839c-.041-6.058,25.091-11.041,50.257-10.994-9.938,3.175-26.084,7.587-29.251,19.511C345.489,177.385,337.209,174.627,337.184,170.839Z"/></g><path class="cls-11" d="M447.018,183.268l-13.723.888-5,9.011,16.5-.112a6.76,6.76,0,0,1,5.962,10.035c-1.774,3.2-4.576,4.878-9,7.093-18.03,9.03-40.242,7.263-40.242,7.263l4.132,5.274s22.6,2.917,39.994-7.277c5.951-3.487,10.241-8.21,12.28-12.8C461.161,195.373,454.977,183.214,447.018,183.268Z"/><path class="cls-17" d="M303.207,244.317l-3.415-3.058s4.9-4.9,24.165-11.376,24.442-8.962,28.617-7.754S368.95,239.3,372.615,241.3"/><ellipse class="cls-18" cx="368.076" cy="269.492" rx="18.034" ry="22.342" transform="translate(-66.353 130.289) rotate(-18.443)"/><ellipse class="cls-18" cx="319.468" cy="255.987" rx="15.524" ry="22.342" transform="translate(-64.577 114.217) rotate(-18.443)"/><ellipse class="cls-19" cx="368.076" cy="269.492" rx="18.034" ry="22.342" transform="translate(-66.353 130.289) rotate(-18.443)"/><ellipse class="cls-19" cx="319.468" cy="255.987" rx="15.524" ry="22.342" transform="translate(-64.577 114.217) rotate(-18.443)"/><path class="cls-19" d="M335.123,254.461s3.734,5.067,16.032,3.634"/><path class="cls-20" d="M385.879,264.846s4.018,3.8,6.414,4.056,17.487-3.159,28.008-7.608c26.393-11.161,38.621-9.978,47.765,10.38"/></g></g></svg>